<svg id="Capa_1" enable-background="new 0 0 512.061 512.061" height="512" viewBox="0 0 512.061 512.061" width="512" xmlns="http://www.w3.org/2000/svg" xmlns:xlink="http://www.w3.org/1999/xlink"><linearGradient id="SVGID_1_" gradientUnits="userSpaceOnUse" x1="89.399" x2="497.297" y1="422.897" y2="14.999"><stop offset="0" stop-color="#5558ff"/><stop offset="1" stop-color="#00c0ff"/></linearGradient><g><g><path d="m512.006 58.216c.646-18.004-4.44-32.948-14.709-43.216-10.376-10.377-25.388-15.521-43.375-14.875-32.025 1.148-70.299 20.318-93.097 46.643l-42.054 48.782-43.301-7.217 20.301-20.301c5.858-5.858 5.858-15.355 0-21.213-5.857-5.858-15.355-5.858-21.213 0l-35.453 35.453-36.366-6.061 18.786-18.786c5.858-5.858 5.858-15.355 0-21.213-5.857-5.858-15.355-5.858-21.213 0l-33.938 33.938-101.482-16.913c-4.778-.798-9.647.763-13.072 4.189l-21.213 21.213c-3.329 3.329-4.901 8.026-4.249 12.688.653 4.661 3.456 8.746 7.57 11.032l188.632 104.794-88.62 102.799-94.84-18.601c-4.901-.962-9.961.581-13.494 4.113l-21.213 21.214c-3.281 3.281-4.859 7.897-4.273 12.5s3.27 8.676 7.268 11.031l104.778 61.704 61.677 102.794c2.376 3.961 6.445 6.606 11.03 7.17.612.075 1.224.112 1.834.112 3.953 0 7.776-1.563 10.605-4.394l21.213-21.213c3.546-3.546 5.086-8.63 4.102-13.548l-18.575-92.875 101.796-88.954 104.09 187.362c2.286 4.115 6.371 6.917 11.032 7.57.695.097 1.39.145 2.082.145 3.949 0 7.773-1.561 10.605-4.394l21.213-21.213c3.426-3.425 4.986-8.294 4.189-13.072l-16.914-101.483 33.937-33.937c5.858-5.857 5.858-15.355 0-21.213-5.857-5.858-15.354-5.858-21.213 0l-18.785 18.785-6.061-36.366 35.453-35.453c5.858-5.858 5.858-15.355 0-21.213-5.857-5.858-15.355-5.858-21.213 0l-20.301 20.301-7.134-42.801 48.655-42.518c26.238-22.717 45.368-61.081 46.523-93.289zm-446.125 27.575 1.693-1.693 228.272 38.045-53.281 61.805zm362.318 358.931-1.693 1.694-97.555-175.598 61.331-53.594zm17.596-315.848c-.105.092-258.809 226.135-268.025 234.213-4.047 3.536-5.893 8.967-4.838 14.237l18.704 93.522-1.952 1.952-53.755-89.592c-1.288-2.147-3.093-3.938-5.25-5.208l-91.372-53.808 1.862-1.862 95.553 18.74c5.288 1.037 10.729-.843 14.248-4.926l232.555-269.76c17.178-19.836 47.904-35.432 71.472-36.276 6.599-.241 15.611.63 21.087 6.106 5.339 5.339 6.178 14.328 5.941 20.928-.851 23.746-16.405 54.565-36.23 71.734zm-22.744-60.841-21.213 21.213c-5.858 5.858-5.858 15.355 0 21.213 5.857 5.857 15.355 5.858 21.213 0l21.213-21.213c5.858-5.858 5.858-15.355 0-21.213-5.858-5.859-15.356-5.859-21.213 0z" fill="url(#SVGID_1_)"/></g></g></svg>